<?xml version="1.0" encoding="UTF-8"?>
<svg id="a" data-name="Layer 1" xmlns="http://www.w3.org/2000/svg" xmlns:xlink="http://www.w3.org/1999/xlink" viewBox="0 0 390.87 390.87">
  <defs>
    <style>
      .d {
        fill: #fff;
      }

      .e {
        fill: url(#b);
      }

      .f {
        fill: url(#c);
      }
    </style>
    <linearGradient id="b" x1="23.4" y1="101" x2="234.66" y2="312.26" gradientUnits="userSpaceOnUse">
      <stop offset="0" stop-color="#bc2aff"/>
      <stop offset="1" stop-color="#00366a"/>
    </linearGradient>
    <linearGradient id="c" x1="171.69" y1="101.95" x2="362.48" y2="292.75" xlink:href="#b"/>
  </defs>
  <circle class="d" cx="195.43" cy="195.43" r="195.43"/>
  <g>
    <path class="e" d="m129.4,226.7h-14.83v109.04h-45.3V55.13h67.35c48.51,0,71.35,37.28,71.35,88.19,0,36.08-13.23,61.73-34.88,72.16l38.08,120.26h-49.71l-32.07-109.04Zm4.01-38.88c16.44,0,29.26-12.03,29.26-44.5,0-27.66-11.63-44.1-32.47-44.1h-15.63v88.59h18.84Z"/>
    <path class="f" d="m310.71,186.62c18.84,6.01,45.7,22.85,45.7,74.16s-23.65,74.96-72.56,74.96h-65.34V55.13h59.73c46.1,0,69.35,25.66,69.35,70.15,0,40.89-20.45,56.12-36.88,60.13v1.2Zm-32.87-16.84c17.24,0,28.86-12.43,28.86-37.68s-10.82-36.08-30.87-36.08h-12.03v73.76h14.03Zm4.81,125.07c20.44,0,29.66-16.44,29.66-40.49,0-28.86-12.83-46.9-32.47-46.9h-16.04v87.39h18.84Z"/>
  </g>
</svg>